<svg class="svg-inline--fa fa-check-double bullet" aria-hidden="true" focusable="false" data-prefix="fad" data-icon="check-double" role="img" xmlns="http://www.w3.org/2000/svg" viewBox="0 0 448 512" data-fa-i2svg="">
<g class="fa-duotone-group">
<path class="fa-secondary" fill="currentColor" d="M342.6 41.37C355.1 53.87 355.1 74.13 342.6 86.63L182.6 246.6C170.1 259.1 149.9 259.1 137.4 246.6L57.37 166.6C44.88 154.1 44.88 133.9 57.37 121.4C69.87 108.9 90.13 108.9 102.6 121.4L159.1 178.7L297.4 41.37C309.9 28.88 330.1 28.88 342.6 41.37H342.6z"></path><path class="fa-primary" fill="currentColor" d="M438.6 169.4C451.1 181.9 451.1 202.1 438.6 214.6L182.6 470.6C170.1 483.1 149.9 483.1 137.4 470.6L9.372 342.6C-3.124 330.1-3.124 309.9 9.372 297.4C21.87 284.9 42.13 284.9 54.63 297.4L159.1 402.7L393.4 169.4C405.9 156.9 426.1 156.9 438.6 169.4H438.6z">
</path>
</g>
</svg>