<svg xmlns="http://www.w3.org/2000/svg" viewBox="0 0 626.39 178.01"><defs><style>.a{fill:#8bb74e;}.b{fill:#fff;}.c{isolation:isolate;}.d{fill:#282828;}</style></defs><title>riskbase-logo-1</title><path class="a" d="M185.3,35.2c.1-4.3-.6-7.6-2.4-9.5C166.9,8.6,131.5.7,96.3,1,61.2.7,25.8,8.6,9.7,25.7,8,27.6,7.2,30.8,7.3,35.2,7,60.3,35.9,120.6,63.6,154.6,75.4,169.2,86.9,179,96,179h.4c9.1,0,20.7-9.8,32.4-24.4C156.8,120.6,185.6,60.4,185.3,35.2Z" transform="translate(-7.29 -0.99)"/><polygon class="b" points="82.81 124.71 43.21 83.11 59.21 66.71 82.81 91.51 130.41 41.51 146.01 58.31 82.81 124.71"/><g class="c"><g class="c"><path class="d" d="M238.63,41.43q18,0,27.54,6.6t9.54,20.16q0,16.92-16.68,22.92,2.28,2.76,5.16,6.72t5.88,8.58q3,4.62,5.76,9.48t4.92,9.54H263.83q-2.28-4.32-4.92-8.7t-5.34-8.52q-2.7-4.14-5.34-7.8t-4.92-6.54q-1.68.12-2.88.12h-9.6v31.44H215.71v-82a81.26,81.26,0,0,1,11.76-1.62Q233.71,41.43,238.63,41.43Zm1.08,13.08q-4.8,0-8.88.36V81.75h6.6a69.31,69.31,0,0,0,9.72-.6,20.42,20.42,0,0,0,7-2.16,10.5,10.5,0,0,0,4.26-4.2,13.94,13.94,0,0,0,1.44-6.72,13.38,13.38,0,0,0-1.44-6.48,10.73,10.73,0,0,0-4.14-4.2,19.63,19.63,0,0,0-6.42-2.22A46.89,46.89,0,0,0,239.71,54.51Z" transform="translate(-7.29 -0.99)"/><path class="d" d="M301,44.31a8.33,8.33,0,0,1-2.64,6.48,9,9,0,0,1-6.24,2.4,9.12,9.12,0,0,1-6.36-2.4,8.32,8.32,0,0,1-2.64-6.48,8.47,8.47,0,0,1,2.64-6.6,9.12,9.12,0,0,1,6.36-2.4,9,9,0,0,1,6.24,2.4A8.48,8.48,0,0,1,301,44.31Zm-1.56,81.12H284.95V62.67h14.52Z" transform="translate(-7.29 -0.99)"/><path class="d" d="M326.71,115q5.76,0,8.4-1.38a4.9,4.9,0,0,0,2.64-4.74,6.15,6.15,0,0,0-2.82-5.16,41.5,41.5,0,0,0-9.3-4.44,73.4,73.4,0,0,1-7.26-3.06,24.74,24.74,0,0,1-5.7-3.78,15.47,15.47,0,0,1-3.78-5.22,18.19,18.19,0,0,1-1.38-7.5q0-8.64,6.36-13.62t17.28-5a53.23,53.23,0,0,1,10.56,1,51.68,51.68,0,0,1,7.56,2l-2.64,11.76a35.51,35.51,0,0,0-6.12-2,37,37,0,0,0-8.64-.9,15,15,0,0,0-7.2,1.5,4.93,4.93,0,0,0-2.76,4.62,6.65,6.65,0,0,0,.54,2.76,5.92,5.92,0,0,0,1.86,2.22,18.92,18.92,0,0,0,3.48,2,53.4,53.4,0,0,0,5.28,2.1A80.91,80.91,0,0,1,341.83,92a23.74,23.74,0,0,1,5.94,4.2,14.37,14.37,0,0,1,3.42,5.34,21.33,21.33,0,0,1,1.08,7.2q0,9-6.66,13.62t-19,4.62a52.11,52.11,0,0,1-13.32-1.38,68.39,68.39,0,0,1-7.08-2.22l2.52-12.12a64.9,64.9,0,0,0,7.74,2.52A39.93,39.93,0,0,0,326.71,115Z" transform="translate(-7.29 -0.99)"/><path class="d" d="M373.39,87.14q2.76-2.88,5.88-6.18t6.12-6.6q3-3.3,5.7-6.36t4.62-5.34h17.16q-6,6.72-12.63,13.92t-13.35,14a83.16,83.16,0,0,1,7.54,7.26q4,4.26,7.66,9.06t6.95,9.6a98.14,98.14,0,0,1,5.39,8.88h-16.8q-2.16-3.72-5-7.8t-6.06-7.92q-3.24-3.84-6.6-7.26a56.56,56.56,0,0,0-6.6-5.82v28.8H358.87V34.71l14.52-2.4Z" transform="translate(-7.29 -0.99)"/></g><g class="c"><path class="d" d="M438.57,126.14q-2,0-4.74-.18t-5.52-.48q-2.82-.3-5.34-.72t-4.32-.9v-80a44,44,0,0,1,4.8-1q2.64-.42,5.46-.72t5.52-.42q2.7-.12,5-.12a73,73,0,0,1,12.78,1.08,34.33,34.33,0,0,1,10.62,3.59,20.09,20.09,0,0,1,7.26,6.65,18.35,18.35,0,0,1,2.7,10.25,19,19,0,0,1-3.42,11.44,17.39,17.39,0,0,1-9.18,6.53,28.19,28.19,0,0,1,6.6,2.4,19.32,19.32,0,0,1,5.28,4,17.22,17.22,0,0,1,3.54,6,25.36,25.36,0,0,1,1.26,8.47q0,11.78-9.36,18T438.57,126.14ZM426.81,78.51h15.84a51.29,51.29,0,0,0,8.4-.66,19.89,19.89,0,0,0,6.9-2.39,12.63,12.63,0,0,0,4.62-4.66,14.88,14.88,0,0,0,1.68-7.47,12.48,12.48,0,0,0-1.8-6.87,13.65,13.65,0,0,0-5.1-4.6,25.33,25.33,0,0,0-7.86-2.57,60.28,60.28,0,0,0-10.08-.78q-4.44,0-7.5.24t-5.1.6Zm0,7v32.88q1.8.24,5.4.54t7.32.3a78.32,78.32,0,0,0,10.74-.72,30.43,30.43,0,0,0,9.18-2.65,16.51,16.51,0,0,0,6.36-5.3,14.61,14.61,0,0,0,2.4-8.67,17.09,17.09,0,0,0-1.68-8,12.69,12.69,0,0,0-4.8-5.06,21.33,21.33,0,0,0-7.62-2.59,63.53,63.53,0,0,0-10-.72Z" transform="translate(-7.29 -0.99)"/><path class="d" d="M505.65,61.94A27.52,27.52,0,0,1,516,63.68a17.84,17.84,0,0,1,6.9,4.8,18.91,18.91,0,0,1,3.84,7.26,33.14,33.14,0,0,1,1.2,9.12V124a34.87,34.87,0,0,1-3.48.78q-2.28.42-5.28.9t-6.66.78q-3.66.3-7.5.3a35.84,35.84,0,0,1-9.06-1.08,20,20,0,0,1-7.2-3.42,16.11,16.11,0,0,1-4.8-6,20.69,20.69,0,0,1-1.74-8.94,18.12,18.12,0,0,1,1.92-8.64,16.33,16.33,0,0,1,5.4-5.94,24.21,24.21,0,0,1,8.28-3.42,47.55,47.55,0,0,1,10.44-1.08q1.68,0,3.54.18c1.24.12,2.44.28,3.6.48s2.16.4,3,.6a9.32,9.32,0,0,1,1.74.54V86.18a40.8,40.8,0,0,0-.48-6.3,13.81,13.81,0,0,0-2.1-5.52,11.67,11.67,0,0,0-4.56-4,17.1,17.1,0,0,0-7.74-1.5,40,40,0,0,0-10.2,1q-3.36,1-4.92,1.56l-1.08-6.84a29,29,0,0,1,6.3-1.8A53.9,53.9,0,0,1,505.65,61.94Zm.72,57.84q4.56,0,8-.3a54.12,54.12,0,0,0,5.82-.78V96.87A24.11,24.11,0,0,0,516,95.6a37.27,37.27,0,0,0-7.92-.66,45,45,0,0,0-6,.42,17.35,17.35,0,0,0-5.76,1.8,12,12,0,0,0-4.32,3.78,10.88,10.88,0,0,0-1.68,6.36,13.62,13.62,0,0,0,1.14,5.88,9.48,9.48,0,0,0,3.24,3.84,14.35,14.35,0,0,0,5,2.1A30.49,30.49,0,0,0,506.37,119.79Z" transform="translate(-7.29 -0.99)"/><path class="d" d="M553.65,119.91a24.47,24.47,0,0,0,11.1-2.22q4.38-2.22,4.38-7.5a10.83,10.83,0,0,0-.78-4.32,8.52,8.52,0,0,0-2.58-3.24A22.18,22.18,0,0,0,561,99.87q-2.94-1.32-7.26-3.12-3.48-1.44-6.6-2.94a27,27,0,0,1-5.52-3.48,15.18,15.18,0,0,1-3.84-4.74,14.38,14.38,0,0,1-1.44-6.72,15.08,15.08,0,0,1,5.7-12.24q5.7-4.68,15.66-4.68A42.56,42.56,0,0,1,568.23,63,33.56,33.56,0,0,1,574,64.94l-1.8,7A46.81,46.81,0,0,0,567.39,70a32,32,0,0,0-10-1.2,22.07,22.07,0,0,0-5,.54A13.18,13.18,0,0,0,548.25,71a9,9,0,0,0-2.88,2.89,8,8,0,0,0-1.08,4.27,9.08,9.08,0,0,0,1,4.33,9.59,9.59,0,0,0,2.82,3.19,23.66,23.66,0,0,0,4.56,2.58q2.7,1.2,6.18,2.63t6.9,2.93a25.37,25.37,0,0,1,5.82,3.59,16.66,16.66,0,0,1,4.08,5,15.66,15.66,0,0,1,1.56,7.38q0,8.4-6.3,12.72t-17.22,4.32q-8.16,0-12.48-1.38a48,48,0,0,1-5.76-2.1l2-7.08a13.11,13.11,0,0,0,1.56.78,32.63,32.63,0,0,0,3.24,1.2,34.77,34.77,0,0,0,4.86,1.14A39.33,39.33,0,0,0,553.65,119.91Z" transform="translate(-7.29 -0.99)"/><path class="d" d="M581.61,94.35a39.4,39.4,0,0,1,2.34-14.22A31.36,31.36,0,0,1,590.07,70a24.11,24.11,0,0,1,8.64-6.06,26.31,26.31,0,0,1,10-2q11.4,0,18.18,7.44t6.78,22.92c0,.64,0,1.28-.06,1.92s-.1,1.24-.18,1.8H589.89q.36,11.4,5.64,17.52t16.8,6.12a33.92,33.92,0,0,0,10.08-1.2,41.92,41.92,0,0,0,5.4-2l1.44,6.72a32.33,32.33,0,0,1-6.3,2.28,39.8,39.8,0,0,1-10.86,1.32,36.16,36.16,0,0,1-13.92-2.4,24.9,24.9,0,0,1-9.48-6.72,26.56,26.56,0,0,1-5.4-10.26A47.68,47.68,0,0,1,581.61,94.35Zm44-4.92q-.24-9.72-4.56-15.12t-12.24-5.4a16.3,16.3,0,0,0-7.5,1.68,19.05,19.05,0,0,0-5.76,4.5,20.88,20.88,0,0,0-3.84,6.54,26.78,26.78,0,0,0-1.62,7.8Z" transform="translate(-7.29 -0.99)"/></g></g></svg>